<mxfile host="app.diagrams.net" agent="Mozilla/5.0 (Windows NT 10.0; Win64; x64) AppleWebKit/537.36 (KHTML, like Gecko) Chrome/128.0.0.0 Safari/537.36" version="24.7.14">
  <diagram name="Pagina-1" id="W_toCd-6LbyThJ3zg4Vh">
    <mxGraphModel dx="1050" dy="565" grid="1" gridSize="10" guides="1" tooltips="1" connect="1" arrows="1" fold="1" page="1" pageScale="1" pageWidth="827" pageHeight="1169" math="0" shadow="0">
      <root>
        <mxCell id="0" />
        <mxCell id="1" parent="0" />
        <mxCell id="XpkbjAHCuXZHCzaAY63l-6" value="&lt;div&gt;&lt;br&gt;&lt;/div&gt;&lt;div&gt;&lt;br&gt;&lt;/div&gt;&lt;div&gt;&lt;br&gt;&lt;/div&gt;" style="rounded=0;whiteSpace=wrap;html=1;" parent="1" vertex="1">
          <mxGeometry x="120" y="40" width="600" height="320" as="geometry" />
        </mxCell>
        <mxCell id="XpkbjAHCuXZHCzaAY63l-29" style="edgeStyle=orthogonalEdgeStyle;rounded=0;orthogonalLoop=1;jettySize=auto;html=1;entryX=0;entryY=0.5;entryDx=0;entryDy=0;" parent="1" source="XpkbjAHCuXZHCzaAY63l-1" target="XpkbjAHCuXZHCzaAY63l-10" edge="1">
          <mxGeometry relative="1" as="geometry">
            <Array as="points">
              <mxPoint x="100" y="195" />
              <mxPoint x="100" y="195" />
            </Array>
          </mxGeometry>
        </mxCell>
        <mxCell id="XpkbjAHCuXZHCzaAY63l-1" value="Klant" style="shape=umlActor;verticalLabelPosition=bottom;verticalAlign=top;html=1;outlineConnect=0;" parent="1" vertex="1">
          <mxGeometry x="40" y="160" width="40" height="80" as="geometry" />
        </mxCell>
        <mxCell id="XpkbjAHCuXZHCzaAY63l-17" style="edgeStyle=orthogonalEdgeStyle;rounded=0;orthogonalLoop=1;jettySize=auto;html=1;entryX=0;entryY=0.5;entryDx=0;entryDy=0;" parent="1" source="XpkbjAHCuXZHCzaAY63l-9" target="XpkbjAHCuXZHCzaAY63l-12" edge="1">
          <mxGeometry relative="1" as="geometry" />
        </mxCell>
        <mxCell id="XpkbjAHCuXZHCzaAY63l-9" value="Tegoed aanpassen" style="ellipse;whiteSpace=wrap;html=1;" parent="1" vertex="1">
          <mxGeometry x="370" y="155" width="120" height="80" as="geometry" />
        </mxCell>
        <mxCell id="XpkbjAHCuXZHCzaAY63l-14" style="edgeStyle=orthogonalEdgeStyle;rounded=0;orthogonalLoop=1;jettySize=auto;html=1;" parent="1" source="XpkbjAHCuXZHCzaAY63l-10" target="XpkbjAHCuXZHCzaAY63l-9" edge="1">
          <mxGeometry relative="1" as="geometry" />
        </mxCell>
        <mxCell id="XpkbjAHCuXZHCzaAY63l-15" style="edgeStyle=orthogonalEdgeStyle;rounded=0;orthogonalLoop=1;jettySize=auto;html=1;exitX=1;exitY=1;exitDx=0;exitDy=0;entryX=0;entryY=0.5;entryDx=0;entryDy=0;" parent="1" source="XpkbjAHCuXZHCzaAY63l-10" target="XpkbjAHCuXZHCzaAY63l-13" edge="1">
          <mxGeometry relative="1" as="geometry" />
        </mxCell>
        <mxCell id="XpkbjAHCuXZHCzaAY63l-20" style="edgeStyle=orthogonalEdgeStyle;rounded=0;orthogonalLoop=1;jettySize=auto;html=1;exitX=1;exitY=0;exitDx=0;exitDy=0;entryX=0;entryY=0.5;entryDx=0;entryDy=0;" parent="1" source="XpkbjAHCuXZHCzaAY63l-10" target="XpkbjAHCuXZHCzaAY63l-19" edge="1">
          <mxGeometry relative="1" as="geometry" />
        </mxCell>
        <mxCell id="XpkbjAHCuXZHCzaAY63l-10" value="Activeer machine met pas" style="ellipse;whiteSpace=wrap;html=1;" parent="1" vertex="1">
          <mxGeometry x="140" y="155" width="120" height="80" as="geometry" />
        </mxCell>
        <mxCell id="XpkbjAHCuXZHCzaAY63l-11" value="Afrekenen" style="ellipse;whiteSpace=wrap;html=1;" parent="1" vertex="1">
          <mxGeometry x="580" y="255" width="120" height="80" as="geometry" />
        </mxCell>
        <mxCell id="XpkbjAHCuXZHCzaAY63l-12" value="Bankpas aanbieden" style="ellipse;whiteSpace=wrap;html=1;" parent="1" vertex="1">
          <mxGeometry x="580" y="155" width="120" height="80" as="geometry" />
        </mxCell>
        <mxCell id="XpkbjAHCuXZHCzaAY63l-16" style="edgeStyle=orthogonalEdgeStyle;rounded=0;orthogonalLoop=1;jettySize=auto;html=1;" parent="1" source="XpkbjAHCuXZHCzaAY63l-13" target="XpkbjAHCuXZHCzaAY63l-11" edge="1">
          <mxGeometry relative="1" as="geometry" />
        </mxCell>
        <mxCell id="XpkbjAHCuXZHCzaAY63l-13" value="Snoep kopen" style="ellipse;whiteSpace=wrap;html=1;" parent="1" vertex="1">
          <mxGeometry x="370" y="255" width="120" height="80" as="geometry" />
        </mxCell>
        <mxCell id="XpkbjAHCuXZHCzaAY63l-18" value="&amp;lt;&amp;lt;extend&amp;gt;&amp;gt;" style="text;html=1;align=center;verticalAlign=middle;whiteSpace=wrap;rounded=0;" parent="1" vertex="1">
          <mxGeometry x="250" y="135" width="60" height="30" as="geometry" />
        </mxCell>
        <mxCell id="XpkbjAHCuXZHCzaAY63l-19" value="Tegoed bekijken" style="ellipse;whiteSpace=wrap;html=1;" parent="1" vertex="1">
          <mxGeometry x="370" y="60" width="120" height="80" as="geometry" />
        </mxCell>
        <mxCell id="XpkbjAHCuXZHCzaAY63l-22" value="&amp;lt;&amp;lt;extend&amp;gt;&amp;gt;" style="text;html=1;align=center;verticalAlign=middle;whiteSpace=wrap;rounded=0;" parent="1" vertex="1">
          <mxGeometry x="280" y="165" width="50" height="30" as="geometry" />
        </mxCell>
        <mxCell id="XpkbjAHCuXZHCzaAY63l-23" value="&amp;lt;&amp;lt;extend&amp;gt;&amp;gt;" style="text;html=1;align=center;verticalAlign=middle;whiteSpace=wrap;rounded=0;" parent="1" vertex="1">
          <mxGeometry x="255" y="225" width="50" height="30" as="geometry" />
        </mxCell>
        <mxCell id="XpkbjAHCuXZHCzaAY63l-26" value="&amp;lt;&amp;lt;extend&amp;gt;&amp;gt;" style="text;html=1;align=center;verticalAlign=middle;whiteSpace=wrap;rounded=0;" parent="1" vertex="1">
          <mxGeometry x="510" y="270" width="50" height="30" as="geometry" />
        </mxCell>
        <mxCell id="XpkbjAHCuXZHCzaAY63l-28" value="&amp;lt;&amp;lt;include&amp;gt;&amp;gt;" style="text;html=1;align=center;verticalAlign=middle;whiteSpace=wrap;rounded=0;" parent="1" vertex="1">
          <mxGeometry x="510" y="165" width="50" height="30" as="geometry" />
        </mxCell>
        <mxCell id="XpkbjAHCuXZHCzaAY63l-30" value="&lt;div&gt;&lt;br&gt;&lt;/div&gt;&lt;div&gt;&lt;br&gt;&lt;/div&gt;&lt;div&gt;&lt;br&gt;&lt;/div&gt;" style="rounded=0;whiteSpace=wrap;html=1;" parent="1" vertex="1">
          <mxGeometry x="120" y="400" width="600" height="320" as="geometry" />
        </mxCell>
        <mxCell id="EPqdXD9e7u_DoeuEwT8Y-35" style="edgeStyle=orthogonalEdgeStyle;rounded=0;orthogonalLoop=1;jettySize=auto;html=1;" edge="1" parent="1" source="XpkbjAHCuXZHCzaAY63l-32" target="XpkbjAHCuXZHCzaAY63l-44">
          <mxGeometry relative="1" as="geometry">
            <Array as="points">
              <mxPoint x="100" y="561" />
              <mxPoint x="100" y="561" />
            </Array>
          </mxGeometry>
        </mxCell>
        <mxCell id="EPqdXD9e7u_DoeuEwT8Y-36" style="edgeStyle=orthogonalEdgeStyle;rounded=0;orthogonalLoop=1;jettySize=auto;html=1;entryX=0;entryY=0.5;entryDx=0;entryDy=0;" edge="1" parent="1" source="XpkbjAHCuXZHCzaAY63l-32" target="XpkbjAHCuXZHCzaAY63l-34">
          <mxGeometry relative="1" as="geometry">
            <Array as="points">
              <mxPoint x="140" y="550" />
              <mxPoint x="140" y="464" />
            </Array>
          </mxGeometry>
        </mxCell>
        <mxCell id="EPqdXD9e7u_DoeuEwT8Y-37" style="edgeStyle=orthogonalEdgeStyle;rounded=0;orthogonalLoop=1;jettySize=auto;html=1;entryX=0;entryY=0.5;entryDx=0;entryDy=0;" edge="1" parent="1" source="XpkbjAHCuXZHCzaAY63l-32" target="XpkbjAHCuXZHCzaAY63l-42">
          <mxGeometry relative="1" as="geometry">
            <Array as="points">
              <mxPoint x="140" y="570" />
              <mxPoint x="140" y="656" />
            </Array>
          </mxGeometry>
        </mxCell>
        <mxCell id="XpkbjAHCuXZHCzaAY63l-32" value="Klant" style="shape=umlActor;verticalLabelPosition=bottom;verticalAlign=top;html=1;outlineConnect=0;" parent="1" vertex="1">
          <mxGeometry x="40" y="520" width="40" height="78.75" as="geometry" />
        </mxCell>
        <mxCell id="XpkbjAHCuXZHCzaAY63l-33" style="edgeStyle=orthogonalEdgeStyle;rounded=0;orthogonalLoop=1;jettySize=auto;html=1;entryX=0;entryY=0.5;entryDx=0;entryDy=0;" parent="1" source="XpkbjAHCuXZHCzaAY63l-34" target="XpkbjAHCuXZHCzaAY63l-40" edge="1">
          <mxGeometry relative="1" as="geometry" />
        </mxCell>
        <mxCell id="XpkbjAHCuXZHCzaAY63l-34" value="Tegoed aanpassen" style="ellipse;whiteSpace=wrap;html=1;" parent="1" vertex="1">
          <mxGeometry x="170" y="423.75" width="120" height="80" as="geometry" />
        </mxCell>
        <mxCell id="EPqdXD9e7u_DoeuEwT8Y-2" style="edgeStyle=orthogonalEdgeStyle;rounded=0;orthogonalLoop=1;jettySize=auto;html=1;" edge="1" parent="1" source="XpkbjAHCuXZHCzaAY63l-39" target="EPqdXD9e7u_DoeuEwT8Y-1">
          <mxGeometry relative="1" as="geometry" />
        </mxCell>
        <mxCell id="XpkbjAHCuXZHCzaAY63l-39" value="Afrekenen" style="ellipse;whiteSpace=wrap;html=1;" parent="1" vertex="1">
          <mxGeometry x="380" y="616.25" width="120" height="80" as="geometry" />
        </mxCell>
        <mxCell id="XpkbjAHCuXZHCzaAY63l-40" value="Bankpas aanbieden" style="ellipse;whiteSpace=wrap;html=1;" parent="1" vertex="1">
          <mxGeometry x="380" y="423.75" width="120" height="80" as="geometry" />
        </mxCell>
        <mxCell id="XpkbjAHCuXZHCzaAY63l-52" style="edgeStyle=orthogonalEdgeStyle;rounded=0;orthogonalLoop=1;jettySize=auto;html=1;" parent="1" source="XpkbjAHCuXZHCzaAY63l-42" target="XpkbjAHCuXZHCzaAY63l-39" edge="1">
          <mxGeometry relative="1" as="geometry" />
        </mxCell>
        <mxCell id="XpkbjAHCuXZHCzaAY63l-42" value="Snoep selecteren" style="ellipse;whiteSpace=wrap;html=1;" parent="1" vertex="1">
          <mxGeometry x="170" y="616.25" width="120" height="80" as="geometry" />
        </mxCell>
        <mxCell id="EPqdXD9e7u_DoeuEwT8Y-5" style="edgeStyle=orthogonalEdgeStyle;rounded=0;orthogonalLoop=1;jettySize=auto;html=1;" edge="1" parent="1" source="XpkbjAHCuXZHCzaAY63l-44" target="EPqdXD9e7u_DoeuEwT8Y-4">
          <mxGeometry relative="1" as="geometry" />
        </mxCell>
        <mxCell id="XpkbjAHCuXZHCzaAY63l-44" value="Tegoed bekijken" style="ellipse;whiteSpace=wrap;html=1;" parent="1" vertex="1">
          <mxGeometry x="170" y="521.25" width="120" height="80" as="geometry" />
        </mxCell>
        <mxCell id="XpkbjAHCuXZHCzaAY63l-47" value="&amp;lt;&amp;lt;extend&amp;gt;&amp;gt;" style="text;html=1;align=center;verticalAlign=middle;whiteSpace=wrap;rounded=0;" parent="1" vertex="1">
          <mxGeometry x="310" y="626.25" width="50" height="30" as="geometry" />
        </mxCell>
        <mxCell id="XpkbjAHCuXZHCzaAY63l-48" value="&amp;lt;&amp;lt;include&amp;gt;&amp;gt;" style="text;html=1;align=center;verticalAlign=middle;whiteSpace=wrap;rounded=0;" parent="1" vertex="1">
          <mxGeometry x="310" y="433.75" width="50" height="30" as="geometry" />
        </mxCell>
        <mxCell id="EPqdXD9e7u_DoeuEwT8Y-1" value="Machinepas aanbieden" style="ellipse;whiteSpace=wrap;html=1;" vertex="1" parent="1">
          <mxGeometry x="580" y="616.25" width="120" height="80" as="geometry" />
        </mxCell>
        <mxCell id="EPqdXD9e7u_DoeuEwT8Y-3" value="&amp;lt;&amp;lt;include&amp;gt;&amp;gt;" style="text;html=1;align=center;verticalAlign=middle;whiteSpace=wrap;rounded=0;" vertex="1" parent="1">
          <mxGeometry x="520" y="626.25" width="50" height="30" as="geometry" />
        </mxCell>
        <mxCell id="EPqdXD9e7u_DoeuEwT8Y-4" value="Machinepas aanbieden" style="ellipse;whiteSpace=wrap;html=1;" vertex="1" parent="1">
          <mxGeometry x="380" y="521.25" width="120" height="80" as="geometry" />
        </mxCell>
        <mxCell id="EPqdXD9e7u_DoeuEwT8Y-6" value="&amp;lt;&amp;lt;include&amp;gt;&amp;gt;" style="text;html=1;align=center;verticalAlign=middle;whiteSpace=wrap;rounded=0;" vertex="1" parent="1">
          <mxGeometry x="310" y="533.75" width="50" height="30" as="geometry" />
        </mxCell>
        <mxCell id="EPqdXD9e7u_DoeuEwT8Y-7" value="&lt;div&gt;&lt;br&gt;&lt;/div&gt;&lt;div&gt;&lt;br&gt;&lt;/div&gt;&lt;div&gt;&lt;br&gt;&lt;/div&gt;" style="rounded=0;whiteSpace=wrap;html=1;" vertex="1" parent="1">
          <mxGeometry x="120" y="760" width="600" height="320" as="geometry" />
        </mxCell>
        <mxCell id="EPqdXD9e7u_DoeuEwT8Y-38" style="edgeStyle=orthogonalEdgeStyle;rounded=0;orthogonalLoop=1;jettySize=auto;html=1;entryX=0;entryY=0.5;entryDx=0;entryDy=0;" edge="1" parent="1" source="EPqdXD9e7u_DoeuEwT8Y-11" target="EPqdXD9e7u_DoeuEwT8Y-20">
          <mxGeometry relative="1" as="geometry">
            <Array as="points">
              <mxPoint x="140" y="910" />
              <mxPoint x="140" y="865" />
            </Array>
          </mxGeometry>
        </mxCell>
        <mxCell id="EPqdXD9e7u_DoeuEwT8Y-39" style="edgeStyle=orthogonalEdgeStyle;rounded=0;orthogonalLoop=1;jettySize=auto;html=1;entryX=0;entryY=0.5;entryDx=0;entryDy=0;" edge="1" parent="1" source="EPqdXD9e7u_DoeuEwT8Y-11" target="EPqdXD9e7u_DoeuEwT8Y-18">
          <mxGeometry relative="1" as="geometry">
            <Array as="points">
              <mxPoint x="140" y="940" />
              <mxPoint x="140" y="1015" />
            </Array>
          </mxGeometry>
        </mxCell>
        <mxCell id="EPqdXD9e7u_DoeuEwT8Y-11" value="Klant" style="shape=umlActor;verticalLabelPosition=bottom;verticalAlign=top;html=1;outlineConnect=0;" vertex="1" parent="1">
          <mxGeometry x="40" y="880" width="40" height="80" as="geometry" />
        </mxCell>
        <mxCell id="EPqdXD9e7u_DoeuEwT8Y-31" style="edgeStyle=orthogonalEdgeStyle;rounded=0;orthogonalLoop=1;jettySize=auto;html=1;" edge="1" parent="1" source="EPqdXD9e7u_DoeuEwT8Y-13" target="EPqdXD9e7u_DoeuEwT8Y-16">
          <mxGeometry relative="1" as="geometry" />
        </mxCell>
        <mxCell id="EPqdXD9e7u_DoeuEwT8Y-13" value="Tegoed aanpassen" style="ellipse;whiteSpace=wrap;html=1;" vertex="1" parent="1">
          <mxGeometry x="370" y="875" width="120" height="80" as="geometry" />
        </mxCell>
        <mxCell id="EPqdXD9e7u_DoeuEwT8Y-14" style="edgeStyle=orthogonalEdgeStyle;rounded=0;orthogonalLoop=1;jettySize=auto;html=1;" edge="1" parent="1" source="EPqdXD9e7u_DoeuEwT8Y-15" target="EPqdXD9e7u_DoeuEwT8Y-23">
          <mxGeometry relative="1" as="geometry" />
        </mxCell>
        <mxCell id="EPqdXD9e7u_DoeuEwT8Y-15" value="Afrekenen" style="ellipse;whiteSpace=wrap;html=1;" vertex="1" parent="1">
          <mxGeometry x="370" y="975" width="120" height="80" as="geometry" />
        </mxCell>
        <mxCell id="EPqdXD9e7u_DoeuEwT8Y-16" value="Bankpas aanbieden" style="ellipse;whiteSpace=wrap;html=1;" vertex="1" parent="1">
          <mxGeometry x="580" y="875" width="120" height="80" as="geometry" />
        </mxCell>
        <mxCell id="EPqdXD9e7u_DoeuEwT8Y-17" style="edgeStyle=orthogonalEdgeStyle;rounded=0;orthogonalLoop=1;jettySize=auto;html=1;" edge="1" parent="1" source="EPqdXD9e7u_DoeuEwT8Y-18" target="EPqdXD9e7u_DoeuEwT8Y-15">
          <mxGeometry relative="1" as="geometry" />
        </mxCell>
        <mxCell id="EPqdXD9e7u_DoeuEwT8Y-18" value="Snoep selecteren" style="ellipse;whiteSpace=wrap;html=1;" vertex="1" parent="1">
          <mxGeometry x="170" y="975" width="120" height="80" as="geometry" />
        </mxCell>
        <mxCell id="EPqdXD9e7u_DoeuEwT8Y-29" style="edgeStyle=orthogonalEdgeStyle;rounded=0;orthogonalLoop=1;jettySize=auto;html=1;entryX=0;entryY=0.5;entryDx=0;entryDy=0;" edge="1" parent="1" source="EPqdXD9e7u_DoeuEwT8Y-20" target="EPqdXD9e7u_DoeuEwT8Y-13">
          <mxGeometry relative="1" as="geometry">
            <Array as="points">
              <mxPoint x="300" y="875" />
              <mxPoint x="300" y="915" />
            </Array>
          </mxGeometry>
        </mxCell>
        <mxCell id="EPqdXD9e7u_DoeuEwT8Y-30" style="edgeStyle=orthogonalEdgeStyle;rounded=0;orthogonalLoop=1;jettySize=auto;html=1;entryX=0;entryY=0.5;entryDx=0;entryDy=0;" edge="1" parent="1" source="EPqdXD9e7u_DoeuEwT8Y-20" target="EPqdXD9e7u_DoeuEwT8Y-25">
          <mxGeometry relative="1" as="geometry">
            <Array as="points">
              <mxPoint x="300" y="855" />
              <mxPoint x="300" y="825" />
            </Array>
          </mxGeometry>
        </mxCell>
        <mxCell id="EPqdXD9e7u_DoeuEwT8Y-20" value="Tegoed bekijken" style="ellipse;whiteSpace=wrap;html=1;" vertex="1" parent="1">
          <mxGeometry x="170" y="825" width="120" height="80" as="geometry" />
        </mxCell>
        <mxCell id="EPqdXD9e7u_DoeuEwT8Y-21" value="&amp;lt;&amp;lt;extend&amp;gt;&amp;gt;" style="text;html=1;align=center;verticalAlign=middle;whiteSpace=wrap;rounded=0;" vertex="1" parent="1">
          <mxGeometry x="300" y="985" width="50" height="30" as="geometry" />
        </mxCell>
        <mxCell id="EPqdXD9e7u_DoeuEwT8Y-23" value="Machinepas aanbieden" style="ellipse;whiteSpace=wrap;html=1;" vertex="1" parent="1">
          <mxGeometry x="580" y="975" width="120" height="80" as="geometry" />
        </mxCell>
        <mxCell id="EPqdXD9e7u_DoeuEwT8Y-24" value="&amp;lt;&amp;lt;include&amp;gt;&amp;gt;" style="text;html=1;align=center;verticalAlign=middle;whiteSpace=wrap;rounded=0;" vertex="1" parent="1">
          <mxGeometry x="510" y="985" width="50" height="30" as="geometry" />
        </mxCell>
        <mxCell id="EPqdXD9e7u_DoeuEwT8Y-25" value="Machinepas aanbieden" style="ellipse;whiteSpace=wrap;html=1;" vertex="1" parent="1">
          <mxGeometry x="370" y="785" width="120" height="80" as="geometry" />
        </mxCell>
        <mxCell id="EPqdXD9e7u_DoeuEwT8Y-32" value="&amp;lt;&amp;lt;extend&amp;gt;&amp;gt;" style="text;html=1;align=center;verticalAlign=middle;whiteSpace=wrap;rounded=0;" vertex="1" parent="1">
          <mxGeometry x="310" y="885" width="50" height="30" as="geometry" />
        </mxCell>
        <mxCell id="EPqdXD9e7u_DoeuEwT8Y-33" value="&amp;lt;&amp;lt;include&amp;gt;&amp;gt;" style="text;html=1;align=center;verticalAlign=middle;whiteSpace=wrap;rounded=0;" vertex="1" parent="1">
          <mxGeometry x="510" y="885" width="50" height="30" as="geometry" />
        </mxCell>
        <mxCell id="EPqdXD9e7u_DoeuEwT8Y-34" value="&amp;lt;&amp;lt;include&amp;gt;&amp;gt;" style="text;html=1;align=center;verticalAlign=middle;whiteSpace=wrap;rounded=0;" vertex="1" parent="1">
          <mxGeometry x="310" y="795" width="50" height="30" as="geometry" />
        </mxCell>
      </root>
    </mxGraphModel>
  </diagram>
</mxfile>
